<?xml version="1.0" standalone="no"?>
<!DOCTYPE svg PUBLIC "-//W3C//DTD SVG 20010904//EN"
 "http://www.w3.org/TR/2001/REC-SVG-20010904/DTD/svg10.dtd">
<svg version="1.0" xmlns="http://www.w3.org/2000/svg"
 width="1200.000000pt" height="1200.000000pt" viewBox="0 0 1200.000000 1200.000000"
 preserveAspectRatio="xMidYMid meet">
<metadata>
Created by potrace 1.11, written by Peter Selinger 2001-2013
</metadata>
<g transform="translate(0.000000,1200.000000) scale(0.100000,-0.100000)"
fill="#000000" stroke="none">
<path d="M0 6000 l0 -6000 6000 0 6000 0 0 6000 0 6000 -6000 0 -6000 0 0
-6000z m6078 4035 c104 -44 151 -166 103 -270 -20 -45 -70 -92 -107 -101 -29
-7 -28 0 -9 -214 129 -1408 414 -2384 828 -2836 112 -123 271 -219 405 -245
87 -17 249 -6 332 21 87 29 221 100 306 163 38 28 134 115 213 194 80 78 145
142 146 140 1 -1 12 -42 25 -92 97 -380 267 -691 453 -831 130 -97 237 -134
398 -134 554 -1 1254 673 2020 1945 110 182 125 212 113 225 -23 27 -44 88
-44 130 0 111 88 200 200 200 112 0 200 -89 200 -200 0 -109 -88 -199 -195
-200 l-40 0 -810 -1526 c-445 -840 -818 -1543 -829 -1562 l-18 -35 -15 32 c-9
17 -30 42 -47 54 -31 22 -31 22 -583 25 l-553 2 0 130 0 130 541 0 c598 0 585
-1 632 64 31 43 31 129 0 172 -47 66 -24 64 -723 64 -699 0 -676 2 -723 -64
-17 -24 -23 -48 -26 -108 l-3 -78 -540 0 c-597 0 -584 1 -631 -64 -21 -30 -22
-41 -25 -278 l-3 -248 -304 0 -304 0 -32 66 c-78 158 -251 264 -429 264 -178
0 -351 -106 -429 -264 l-32 -66 -289 0 -289 0 -3 248 c-3 237 -4 248 -25 278
-47 65 -34 64 -631 64 l-540 0 -3 78 c-3 60 -9 84 -26 108 -47 66 -24 64 -723
64 -699 0 -676 2 -723 -64 -31 -43 -31 -129 0 -172 47 -65 34 -64 632 -64
l541 0 0 -100 0 -100 -541 0 c-598 0 -585 1 -632 -64 -31 -43 -31 -129 0 -172
47 -66 24 -64 723 -64 699 0 676 -2 723 64 17 24 23 48 26 109 l3 77 449 0
448 0 0 -450 0 -450 -449 0 -450 0 0 66 c0 78 -19 125 -64 157 l-31 22 -578 5
-578 5 -967 1822 -967 1823 -50 0 c-117 1 -205 87 -205 200 0 111 88 200 200
200 150 0 241 -147 179 -290 l-21 -48 113 -188 c675 -1131 1325 -1818 1846
-1950 168 -42 343 -29 471 35 172 87 309 244 423 485 54 115 115 287 149 421
13 50 24 91 25 92 1 2 66 -62 146 -140 79 -79 175 -166 213 -194 85 -63 219
-134 306 -163 83 -27 245 -38 332 -21 134 26 293 122 405 245 414 452 699
1428 828 2836 19 214 20 207 -9 214 -94 24 -153 163 -111 264 43 101 161 149
263 107z m2194 -5212 c3 -92 6 -113 25 -139 48 -67 23 -65 732 -62 353 2 641
2 641 1 0 -1 -40 -78 -89 -170 l-90 -168 -563 -5 c-563 -5 -563 -5 -594 -27
-45 -32 -64 -79 -64 -157 l0 -66 -450 0 -450 0 0 450 0 450 449 0 449 0 4
-107z m-2701 -549 c78 -158 251 -264 429 -264 178 0 351 106 429 264 l32 66
304 0 304 0 3 -257 c3 -248 4 -259 25 -289 47 -65 34 -64 631 -64 l540 0 3
-77 c3 -61 9 -85 26 -109 45 -62 55 -64 427 -64 185 0 336 -2 336 -4 0 -7
-681 -1290 -689 -1299 -4 -4 -81 28 -172 72 -672 322 -1298 469 -2074 488
-865 20 -1580 -132 -2344 -498 -80 -38 -148 -66 -152 -62 -7 9 -689 1293 -689
1299 0 2 158 4 351 4 388 0 397 1 442 64 17 24 23 48 26 109 l3 77 540 0 c597
0 584 -1 631 64 21 30 22 41 25 289 l3 257 289 0 289 0 32 -66z m-2111 -394
l0 -100 -342 0 -343 0 -52 100 -52 100 394 0 395 0 0 -100z m5818 0 l-53 -100
-327 0 -328 0 0 100 0 100 380 0 380 0 -52 -100z"/>
</g>
</svg>
